<?xml version="1.0" encoding="UTF-8"?>
<svg id="Layer_1" xmlns="http://www.w3.org/2000/svg" version="1.1" viewBox="0 0 1324.5 345.41">
  <!-- Generator: Adobe Illustrator 30.0.0, SVG Export Plug-In . SVG Version: 2.1.1 Build 123)  -->
  <defs>
    <style>
      .st0 {
        fill: #707173;
      }

      .st1 {
        isolation: isolate;
      }

      .st2 {
        fill: #fdb714;
      }

      .st3 {
        fill: #ca171e;
      }
    </style>
  </defs>
  <path class="st2" d="M222.66,225c-12.39,0-23.73-4.57-32.44-12.1-2.2,20.79-20.28,32.71-42.26,32.71h-3.83c-23.46,0-42.48-19.02-42.48-42.48v-9.26c0-23.46,19.02-42.48,42.48-42.48h35.03c8.47-15.32,24.79-25.72,43.52-25.72,6.59,0,12.53-.9,17.03-2.51V54.71h-49.27v55.33h-49.46c-47.31,0-85.66,38.35-85.66,85.66v9.34c0,47.31,38.35,85.66,85.66,85.66h8.14c11.22,0,22.32-2.2,32.69-6.48l8.64-3.57v7.53h49.27v-66.19c-5.32,1.95-11.07,3.02-17.06,3.02h0Z"/>
  <path class="st3" d="M305.58,228.56c-12.61,0-26.07-2.52-35.18-9.86-3-2.41-5.74-5.15-8.15-8.15-7.34-9.11-9.86-22.57-9.86-35.18v-.04c0-12.61,2.87-25.71,10.21-34.83,2.41-3,13.11-13.7,16.11-16.11,9.11-7.34,22.22-10.21,34.83-10.21,16.42,0,29.74-13.32,29.74-29.74s-13.31-29.74-29.74-29.74-29.74,13.32-29.74,29.74c0,12.61-2.52,26.07-9.86,35.18-2.41,3-13.11,13.7-16.11,16.11-9.11,7.33-22.55,9.86-35.15,9.86h-.03c-16.42,0-29.74,13.32-29.74,29.74v.04c0,16.42,13.31,29.73,29.74,29.74,12.61,0,25.71,2.87,34.83,10.21,3,2.41,5.74,5.15,8.15,8.15,7.34,9.11,10.21,22.22,10.21,34.83,0,16.42,13.32,29.74,29.74,29.74s29.74-13.31,29.74-29.74-13.32-29.74-29.74-29.74h0Z"/>
  <g class="st1">
    <g class="st1">
      <path class="st0" d="M356.97,139.48h34.22c26.9,0,45.03,17.29,45.03,42.03s-18.13,42.03-45.03,42.03h-34.22v-84.06ZM390.71,215.85c22.34,0,36.75-14.17,36.75-34.34s-14.41-34.34-36.75-34.34h-24.86v68.69h24.86Z"/>
      <path class="st0" d="M451.47,139.48h8.89v84.06h-8.89v-84.06Z"/>
      <path class="st0" d="M542.25,181.51h8.53v32.06c-7.93,7.08-19.21,10.69-30.86,10.69-25.58,0-44.31-18.13-44.31-42.75s18.73-42.75,44.43-42.75c12.73,0,23.78,4.08,31.22,12.13l-5.52,5.64c-7.08-6.96-15.49-9.85-25.34-9.85-20.77,0-36.03,14.77-36.03,34.83s15.25,34.83,35.91,34.83c8.05,0,15.49-1.8,21.98-6.48v-28.34Z"/>
      <path class="st0" d="M571.19,139.48h8.89v84.06h-8.89v-84.06Z"/>
    </g>
    <g class="st1">
      <path class="st0" d="M618.61,147.17h-29.54v-7.69h67.97v7.69h-29.54v76.38h-8.89v-76.38Z"/>
    </g>
    <g class="st1">
      <path class="st0" d="M714.92,201.08h-46.83l-10.09,22.46h-9.25l38.43-84.06h8.77l38.43,84.06h-9.37l-10.09-22.46ZM711.68,193.88l-20.17-45.15-20.17,45.15h40.35Z"/>
      <path class="st0" d="M743.61,139.48h8.89v76.38h47.07v7.69h-55.96v-84.06Z"/>
    </g>
    <g class="st1">
      <path class="st0" d="M865.49,190.52l-11.29,11.77v21.25h-19.33v-84.06h19.33v39.27l37.23-39.27h21.62l-34.83,37.47,36.87,46.59h-22.7l-26.9-33.02Z"/>
    </g>
    <g class="st1">
      <path class="st0" d="M970.56,205.53h-39.03l-7.45,18.01h-19.93l37.47-84.06h19.21l37.59,84.06h-20.42l-7.45-18.01ZM964.43,190.76l-13.33-32.18-13.33,32.18h26.66Z"/>
      <path class="st0" d="M1002.49,139.48h19.45v84.06h-19.45v-84.06Z"/>
      <path class="st0" d="M1105.29,207.69v15.85h-73.49v-12.61l46.11-55.6h-45.15v-15.85h70.73v12.61l-45.99,55.6h47.79Z"/>
      <path class="st0" d="M1178.17,207.93v15.61h-65.09v-84.06h63.53v15.61h-44.19v18.25h39.03v15.13h-39.03v19.45h45.75Z"/>
      <path class="st0" d="M1266.07,139.48v84.06h-15.97l-41.91-51.04v51.04h-19.21v-84.06h16.09l41.79,51.04v-51.04h19.21Z"/>
    </g>
  </g>
</svg>